<?xml version="1.0" standalone="no"?>
<!DOCTYPE svg PUBLIC "-//W3C//DTD SVG 20010904//EN"
 "http://www.w3.org/TR/2001/REC-SVG-20010904/DTD/svg10.dtd">
<svg version="1.0" xmlns="http://www.w3.org/2000/svg"
 width="1280.000000pt" height="1204.000000pt" viewBox="0 0 1280.000000 1204.000000"
 preserveAspectRatio="xMidYMid meet">
<metadata>
Created by potrace 1.15, written by Peter Selinger 2001-2017
</metadata>
<g transform="translate(0.000000,1204.000000) scale(0.100000,-0.100000)"
fill="#000000" stroke="none">
<path d="M3634 12020 c-43 -21 -64 -53 -64 -95 0 -24 3 -25 58 -26 110 -2 120
-16 12 -16 -118 -1 -158 -7 -212 -34 -72 -37 -98 -96 -78 -179 16 -66 48 -100
95 -100 39 0 80 19 192 86 91 55 121 57 54 4 -53 -42 -59 -56 -40 -93 42 -80
82 -85 205 -22 97 50 114 53 136 28 25 -28 30 -60 18 -98 -10 -31 -23 -41 -90
-75 -124 -62 -324 -180 -620 -365 -458 -286 -591 -355 -770 -401 -62 -16 -70
-21 -66 -39 3 -11 8 -44 12 -72 8 -63 11 -63 127 -34 196 51 381 145 849 434
614 380 890 504 1218 548 134 18 364 6 482 -25 189 -50 371 -139 520 -253 l58
-44 55 47 c30 27 52 51 48 54 -268 219 -520 342 -794 386 -135 22 -369 14
-514 -16 -99 -21 -280 -77 -384 -119 -49 -20 -53 -20 -45 -4 4 10 10 51 12 90
9 187 -115 383 -274 433 -84 26 -148 26 -200 0z"/>
<path d="M683 11941 c-168 -27 -301 -97 -429 -225 -76 -77 -99 -107 -137 -186
-103 -210 -112 -400 -26 -605 97 -233 323 -431 648 -565 l74 -30 -6 38 c-3 20
-9 60 -13 88 l-6 51 -77 37 c-124 62 -211 123 -297 210 -256 259 -257 624 -2
861 183 169 425 203 652 90 79 -39 73 -40 156 33 44 39 45 41 25 56 -46 36
-177 97 -257 120 -96 28 -226 39 -305 27z"/>
<path d="M1933 11895 c-307 -58 -550 -189 -763 -411 -89 -92 -195 -227 -182
-231 4 -1 55 10 114 25 l107 27 58 69 c110 132 309 260 496 320 182 59 426 76
617 42 233 -41 488 -160 685 -320 28 -22 98 -87 157 -144 l107 -104 67 38 c37
22 69 44 71 51 5 15 -203 225 -282 285 -228 172 -470 287 -725 343 -103 23
-428 29 -527 10z"/>
<path d="M6978 11599 c-285 -42 -555 -162 -1098 -489 -184 -111 -409 -239
-500 -284 -151 -75 -364 -156 -450 -170 -34 -6 -34 -6 9 14 64 30 164 103 205
152 20 23 43 65 52 93 15 47 15 56 0 108 -15 50 -23 61 -69 92 l-52 35 -6 -60
c-6 -63 -19 -94 -19 -46 0 15 -7 59 -16 97 -19 82 -55 131 -111 150 -50 16
-183 6 -217 -16 -62 -41 -41 -95 76 -193 79 -65 116 -102 105 -102 -2 0 -31
16 -63 35 -33 20 -68 34 -79 33 -28 -4 -46 -49 -46 -114 0 -69 16 -94 83 -131
60 -32 70 -56 39 -94 -31 -40 -127 -82 -197 -87 -134 -9 -363 47 -529 130 -91
46 -224 130 -306 194 -30 24 -58 44 -62 44 -11 0 -107 -64 -107 -72 0 -12 134
-119 239 -189 368 -247 728 -320 1112 -223 219 55 453 164 774 360 517 315
628 380 750 439 310 152 531 210 790 208 156 -2 279 -23 422 -72 167 -59 182
-74 145 -148 -11 -21 -22 -55 -26 -76 -10 -52 10 -142 39 -175 20 -23 31 -27
73 -27 40 0 56 5 77 25 24 22 26 30 21 74 -8 69 7 47 39 -58 42 -140 92 -173
190 -126 74 35 105 75 105 134 0 60 -34 119 -108 187 -37 34 -57 57 -45 50 44
-23 87 -9 111 35 9 18 8 28 -11 55 -35 53 -102 81 -205 87 -94 5 -141 -9 -202
-58 l-25 -20 -106 55 c-128 66 -280 118 -408 139 -100 17 -296 19 -393 5z"/>
<path d="M1486 11471 l-49 -50 47 -53 c25 -29 64 -87 85 -128 72 -140 100
-260 126 -540 9 -90 17 -165 18 -166 1 -1 39 5 85 13 l83 16 -6 76 c-25 299
-62 465 -140 626 -52 108 -154 247 -186 253 -8 1 -36 -20 -63 -47z"/>
<path d="M10010 11353 c-357 -25 -663 -99 -1450 -353 -494 -159 -727 -225
-960 -269 -210 -40 -273 -46 -505 -46 -198 1 -244 4 -330 23 -222 48 -404 130
-584 263 l-33 24 -44 -50 -44 -50 28 -23 c15 -13 70 -52 123 -87 397 -267 883
-321 1532 -170 205 47 441 119 922 281 776 261 1056 329 1417 341 240 8 274
-5 321 -125 21 -52 21 -62 2 -62 -46 0 -128 -65 -159 -127 -21 -42 -21 -119 0
-127 34 -13 89 -5 131 20 25 14 46 24 49 22 2 -3 -14 -35 -37 -72 -22 -37 -41
-81 -41 -97 -1 -40 33 -74 101 -100 146 -55 243 22 228 181 -3 30 -9 64 -13
75 -5 14 2 10 23 -12 53 -56 143 -41 143 24 0 93 -167 222 -287 223 l-53 0
-28 63 c-17 37 -43 74 -63 90 l-34 28 90 -6 c305 -19 597 -63 856 -130 158
-40 268 -75 689 -220 229 -79 319 -98 450 -99 108 0 119 2 180 31 102 48 154
110 166 196 13 92 -56 178 -170 213 -51 15 -226 32 -226 21 0 -3 33 -11 73
-17 162 -28 267 -107 267 -202 0 -96 -128 -178 -278 -178 -115 0 -202 27 -677
210 -460 177 -854 262 -1345 290 -165 9 -328 11 -430 3z"/>
<path d="M1280 11195 c-221 -37 -427 -117 -589 -228 -60 -41 -181 -146 -181
-157 0 -5 30 -34 67 -64 l68 -54 45 42 c205 192 467 302 763 322 121 8 112 -4
77 99 l-17 50 -79 2 c-43 1 -113 -4 -154 -12z"/>
<path d="M1843 11188 c4 -13 12 -46 18 -73 l11 -51 76 -34 c148 -67 244 -197
278 -381 13 -66 15 -119 10 -249 -3 -91 -9 -182 -12 -203 l-6 -38 73 3 74 3
12 85 c17 122 16 381 -1 460 -40 185 -127 313 -271 399 -52 32 -170 78 -239
95 -26 6 -28 5 -23 -16z"/>
<path d="M1000 10850 l-105 -47 -12 -64 c-17 -89 -16 -230 2 -333 59 -340 288
-545 640 -572 l81 -7 13 73 c15 82 11 89 -49 90 -103 1 -253 61 -336 134 -66
58 -106 121 -141 221 -25 74 -27 91 -27 230 0 123 4 165 22 234 12 46 21 85
20 86 -2 1 -50 -19 -108 -45z"/>
<path d="M236 10478 c-147 -324 -147 -626 -1 -936 77 -163 227 -387 372 -558
38 -46 43 -57 43 -102 0 -39 -6 -57 -25 -80 -45 -54 -90 -65 -295 -72 -202 -6
-223 -12 -287 -73 -34 -32 -50 -80 -38 -116 8 -27 34 -27 76 2 l34 23 -28 -56
c-52 -105 -54 -229 -5 -308 30 -48 94 -92 135 -92 76 0 100 70 89 248 -9 125
5 148 29 50 18 -77 37 -108 65 -108 29 0 98 58 120 99 26 51 25 87 -1 159 -12
31 -22 70 -23 86 -1 26 4 30 51 46 76 25 118 61 141 121 l18 51 126 -154 c247
-303 356 -461 463 -673 78 -154 122 -275 156 -435 20 -90 23 -133 23 -305 0
-178 -3 -214 -27 -323 -63 -295 -195 -596 -400 -910 l-80 -122 23 -63 c12 -34
25 -66 29 -70 9 -9 142 176 233 323 407 659 496 1225 281 1790 -104 275 -249
501 -602 940 -335 417 -428 549 -512 725 -88 186 -115 302 -106 471 6 121 22
192 71 305 l33 76 -60 49 c-91 74 -83 75 -121 -8z"/>
<path d="M2027 10514 c-187 -56 -376 -83 -644 -91 -112 -3 -203 -9 -203 -12 1
-3 7 -33 13 -66 l13 -60 169 1 c232 1 441 26 656 80 l107 27 -5 61 c-5 70 -9
86 -20 85 -4 -1 -43 -12 -86 -25z"/>
<path d="M1788 10228 c-43 -8 -58 -15 -58 -27 -3 -174 -23 -497 -34 -566 -36
-210 -117 -410 -238 -580 -34 -49 -118 -146 -186 -215 -67 -68 -120 -130 -118
-137 3 -7 22 -35 42 -62 l37 -50 41 31 c67 51 267 258 316 325 181 251 256
489 280 883 5 91 10 220 10 288 0 138 9 127 -92 110z"/>
<path d="M2249 10076 c-92 -14 -163 -29 -248 -53 l-54 -15 7 -76 c3 -41 7 -77
9 -79 2 -1 53 8 113 22 158 36 234 45 375 45 245 0 386 -63 465 -210 29 -53
27 -210 -3 -266 -35 -66 -74 -105 -128 -130 -105 -50 -239 -21 -330 70 -87 87
-125 191 -125 345 l0 93 -67 -7 c-38 -4 -72 -12 -76 -19 -13 -17 0 -246 16
-297 102 -315 415 -471 680 -337 235 118 313 430 166 660 -69 107 -215 203
-369 243 -88 22 -320 28 -431 11z"/>
<path d="M810 8422 c-404 -442 -513 -986 -340 -1700 69 -283 162 -536 445
-1207 194 -460 272 -687 310 -900 18 -105 21 -313 5 -441 -39 -315 -130 -572
-374 -1048 -173 -340 -251 -544 -292 -767 -25 -132 -25 -443 0 -594 50 -311
132 -550 349 -1016 163 -350 183 -419 153 -523 -63 -215 -303 -205 -351 15
l-13 64 -1 -55 c-3 -227 196 -330 347 -179 48 47 72 100 81 177 18 144 -17
263 -192 657 -222 500 -288 761 -289 1145 0 159 14 294 43 395 l11 39 15 -29
c30 -58 76 -107 129 -137 65 -36 67 -48 24 -166 -18 -50 -30 -102 -30 -131 0
-43 4 -52 35 -80 20 -17 44 -31 54 -31 16 0 18 6 14 43 -6 47 13 74 43 63 18
-7 18 -6 -17 -137 -28 -106 -19 -155 35 -188 148 -92 363 158 302 352 -12 41
-12 46 0 36 8 -6 19 -29 26 -52 l12 -40 12 34 c32 87 -3 197 -79 247 -36 24
-53 28 -156 34 -64 3 -139 13 -168 22 -107 34 -190 114 -213 207 -10 42 -9 53
21 129 17 46 62 143 99 214 318 621 347 684 409 902 67 238 97 479 88 719 -13
330 -79 545 -418 1347 -258 613 -374 989 -394 1288 l-6 95 26 -52 c101 -202
361 -271 586 -157 175 88 266 328 158 418 -43 36 -59 34 -53 -6 3 -18 0 -46
-6 -63 l-12 -30 -14 54 c-55 207 -158 286 -308 235 -83 -28 -112 -112 -60
-173 14 -17 59 -55 100 -83 41 -28 74 -56 74 -61 0 -5 -15 1 -32 13 -51 33
-98 51 -126 48 -40 -5 -67 -50 -67 -115 0 -55 0 -56 59 -108 73 -66 74 -89 1
-93 -187 -12 -306 153 -309 428 -1 104 11 166 59 317 53 163 211 421 338 551
l52 53 -55 49 c-30 27 -58 50 -62 50 -4 0 -39 -35 -78 -78z"/>
<path d="M721 5649 c-47 -74 -191 -371 -235 -480 -61 -153 -83 -242 -97 -396
-27 -296 14 -503 134 -671 l31 -42 -18 -70 c-46 -176 25 -297 186 -315 83 -10
150 8 188 51 38 44 38 54 -2 54 -18 0 -40 5 -48 10 -11 7 -2 10 32 10 97 0
206 58 247 131 61 109 -6 260 -109 245 -28 -4 -50 -21 -115 -91 -44 -47 -83
-85 -87 -85 -19 0 -5 28 29 57 37 31 38 32 23 59 -24 44 -66 69 -113 68 -63
-1 -116 -22 -162 -65 l-42 -39 -31 68 c-62 135 -67 167 -67 397 1 225 11 308
52 435 34 104 159 356 232 468 34 51 61 98 61 103 0 10 -40 91 -59 118 -7 11
-14 7 -30 -20z"/>
</g>
</svg>
